<?xml version="1.0" encoding="utf-8"?>
<!-- Generator: Adobe Illustrator 26.0.1, SVG Export Plug-In . SVG Version: 6.00 Build 0)  -->
<svg version="1.1" id="레이어_1" xmlns="http://www.w3.org/2000/svg" xmlns:xlink="http://www.w3.org/1999/xlink" x="0px"
	 y="0px" width="400px" height="400px" viewBox="0 0 400 400" style="enable-background:new 0 0 400 400;" xml:space="preserve">
<style type="text/css">
	.st0{fill:#F9C58E;stroke:#000000;stroke-width:3.2111;stroke-linecap:round;stroke-linejoin:round;stroke-miterlimit:10;}
	.st1{fill:none;}
	.st2{clip-path:url(#SVGID_00000019680700044441423500000006090291774313580683_);}
	
		.st3{fill:url(#SVGID_00000015355496709094451950000004281504068014373530_);stroke:#000000;stroke-width:3.2111;stroke-linecap:round;stroke-linejoin:round;stroke-miterlimit:10;}
	.st4{fill:none;stroke:#000000;stroke-width:3.2111;stroke-linecap:round;stroke-linejoin:round;stroke-miterlimit:10;}
	.st5{fill:#FFFFFF;stroke:#000000;stroke-width:3.2111;stroke-linecap:round;stroke-linejoin:round;stroke-miterlimit:10;}
	.st6{fill:#E5C49C;stroke:#000000;stroke-width:3.2111;stroke-linecap:round;stroke-linejoin:round;stroke-miterlimit:10;}
	.st7{fill:#E2E2E2;stroke:#000000;stroke-width:3.2111;stroke-linecap:round;stroke-linejoin:round;stroke-miterlimit:10;}
	.st8{fill:#FFEEDC;stroke:#000000;stroke-width:3.2111;stroke-linecap:round;stroke-linejoin:round;stroke-miterlimit:10;}
	
		.st9{fill:url(#SVGID_00000109752431587102162850000018197670256781602461_);stroke:#000000;stroke-width:3.2111;stroke-linecap:round;stroke-linejoin:round;stroke-miterlimit:10;}
	.st10{fill:#282420;stroke:#000000;stroke-width:3.2111;stroke-linecap:round;stroke-linejoin:round;stroke-miterlimit:10;}
	
		.st11{fill:url(#SVGID_00000070100833526937760470000007506846984292024963_);stroke:#000000;stroke-width:3.2111;stroke-linecap:round;stroke-linejoin:round;stroke-miterlimit:10;}
	.st12{fill:#A5663C;stroke:#000000;stroke-width:3.2111;stroke-linecap:round;stroke-linejoin:round;stroke-miterlimit:10;}
</style>
<path class="st0" d="M200,400L200,400C89.5,400,0,310.5,0,200l0,0C0,89.5,89.5,0,200,0l0,0c110.5,0,200,89.5,200,200l0,0
	C400,310.5,310.5,400,200,400z"/>
<path class="st1" d="M200,400L200,400C89.5,400,0,310.5,0,200l0,0C0,89.5,89.5,0,200,0l0,0c110.5,0,200,89.5,200,200l0,0
	C400,310.5,310.5,400,200,400z"/>
<path class="st1" d="M200,400L200,400C89.5,400,0,310.5,0,200l0,0C0,89.5,89.5,0,200,0l0,0c110.5,0,200,89.5,200,200l0,0
	C400,310.5,310.5,400,200,400z"/>
<path class="st1" d="M200,400L200,400C89.5,400,0,310.5,0,200l0,0C0,89.5,89.5,0,200,0l0,0c110.5,0,200,89.5,200,200l0,0
	C400,310.5,310.5,400,200,400z"/>
<g>
	<g>
		<defs>
			<path id="SVGID_1_" d="M200,400L200,400C89.5,400,0,310.5,0,200l0,0C0,89.5,89.5,0,200,0l0,0c110.5,0,200,89.5,200,200l0,0
				C400,310.5,310.5,400,200,400z"/>
		</defs>
		<clipPath id="SVGID_00000007395703164287697790000001923693464692061825_">
			<use xlink:href="#SVGID_1_"  style="overflow:visible;"/>
		</clipPath>
		<g style="clip-path:url(#SVGID_00000007395703164287697790000001923693464692061825_);">
			<g>
				<g>
					
						<linearGradient id="SVGID_00000117664157939120057680000014110438910861754289_" gradientUnits="userSpaceOnUse" x1="221.5893" y1="-6.027" x2="221.5893" y2="434.0349" gradientTransform="matrix(1 0 0 -1 0 512.92)">
						<stop  offset="0" style="stop-color:#31271A"/>
						<stop  offset="1" style="stop-color:#0F0F0F"/>
					</linearGradient>
					
						<path style="fill:url(#SVGID_00000117664157939120057680000014110438910861754289_);stroke:#000000;stroke-width:3.2111;stroke-linecap:round;stroke-linejoin:round;stroke-miterlimit:10;" d="
						M91.6,322.4c-2,13.9-9,28.7-30.1,28.7c0,0,25.5-14.4,7.7-43.1s-11.9-55.8-11.9-55.8S60,238,61.7,233c1.7-5.1,5.7-36.3,5.7-36.3
						l15.7-18.2l42-60.3l196-17.7c29.8,32.8,38.1,72.9,39.8,107.3c0.3,6.4,0.4,12.6,0.4,18.6c-0.2,25.1-2.7,45.1-0.2,53.8
						c0,0,0.8,13.8,13.8,34.6s19.7,51.8-3.4,72.1c0,0,16,66.5-14.8,99.1c-15.9,16.9-11.3,36.9-6.8,45.9c0,0-20.7-7.6-29.2-21.7
						s-199.9-23.7-199.9-23.7s12-16.7-2.3-7.9c-18.3,11.3-37.5,8-37.5,8c13.9-22.8-9.3-36.3-11-71.1c0,0-19.2-29.3,0-59.1l3.3-6.9"
						/>
					<path class="st4" d="M371.5,386.8c0,0-19.7,13.2-15.9,29.7c3.8,16.5,15.9,28.3,15.9,28.3s-28.6-11.8-29.4-38
						c-0.8-26.2,6.8-38.9,6.8-38.9"/>
					<g>
						<path class="st5" d="M117.2,386.6c-5.8-15.3,9.4-7.3-5.9-1.4l-61.7,19.4l-38.2-33.8c0.4-4.3-3.4-12.1-8.3-17.1l-9.1-8.4
							c-14.5-13.5-37.2-12.6-50.7,1.9l0,0c-13.5,14.5-12.6,37.2,1.9,50.7l9.1,8.4c6.2,5.7,16.6,10.6,24.2,8.5l36.3,31.4
							c6.1,5,16.4,4.4,23.3,1.7l62-23.1C115.4,419,123,401.9,117.2,386.6z"/>
						<path class="st6" d="M138.6,346.1c-5.6-0.6-6.9,1.7-12.5,3.8l-55.8,32.9l-13.9,6.8c-4.1,2-9,1.4-12.5-1.6
							c-7.6-6.5-20.7-16.8-25-14c-5.2,3.4-44.8,42.3-36.4,53.3s45.1,46.1,70.8,39.6s56.9-25.5,56.9-25.5l37.4-24.9
							c18.8-7.2,28.2-28.2,21.1-47l0,0"/>
					</g>
					<path class="st7" d="M226.5,363h-45c-1.5,0-2.8-1.2-2.8-2.8V314H229v46.5C229,361.9,227.9,363,226.5,363z"/>
					<g>
						<path class="st6" d="M161.4,339.8c0,0-54.2,3.3-63.1,36.6s-3.4,131.8-3.4,149.1s1.3,49,12.7,54.1c0,0-7.4,7.6,19.7,19
							c27.2,11.4,105.3,34.2,171.2,24.9c65.9-9.3,0-258,0-258L217.8,335L161.4,339.8z"/>
						<g>
							<ellipse class="st5" cx="202" cy="344.4" rx="35.5" ry="21.1"/>
							<ellipse class="st4" cx="202" cy="351.5" rx="44.8" ry="28.3"/>
							<path class="st4" d="M176.9,359.3c0,0-10.3,10.5-15.4,51.9c-4.6,37.7-8.5,162.5-2.2,188.8"/>
						</g>
					</g>
					<path class="st5" d="M336.3,569.7l-22.5-179.5c-2-16-16.6-27.3-32.5-25.3S254,381.5,256,397.5L278.5,577
						c-4.8,7.3-7.2,16.3-6,25.8l1.1,9.2c2.4,18.9,18.2,33.2,37.2,33.5l0,0c23.4,0.5,41.7-19.9,38.8-43.1l-1.1-9.2
						C347.4,583.9,342.9,575.7,336.3,569.7z"/>
					<path class="st6" d="M248,383.3c-1.9,5.5-2.5,11.4-1.6,17.5l11.1,75.2c0,0,7.4,78.6,8.5,84.9s3.5,8.8,11.6,8
						c8.1-0.8,66.9-4.6,64.5-21.1s-10.8-82.7-10.8-82.7L320.2,390c-3-20.4-22-34.5-42.4-31.5l0,0"/>
					<g>
						<path class="st5" d="M212.2,340.8h-18.3c-58.8,0-106.5-47.7-106.5-106.5V195c0-58.8,47.7-106.5,106.5-106.5h18.3
							c53.6,0,97.3,42.1,100,94.9c0.1,3-2,5.7-4.9,6.4l-65.8,16.3c-3.9,1-5.9,5.1-4.3,8.8c9.1,20.3,46.6,60.5,58.2,72.6
							c2,2.1,2.4,5.3,0.8,7.8C278.3,322.7,247.4,340.8,212.2,340.8z"/>
						<path d="M123.8,252.1L123.8,252.1c-5.4-0.6-9.4-5.2-9.4-10.6v-14.9c0-6.4,5.6-11.4,11.9-10.6l0,0c5.4,0.6,9.4,5.2,9.4,10.6
							v14.9C135.8,247.9,130.2,252.9,123.8,252.1z"/>
						<path d="M190.4,258.4L190.4,258.4c-5.4-0.6-9.4-5.2-9.4-10.6v-14.9c0-6.4,5.6-11.4,11.9-10.6l0,0c5.4,0.6,9.4,5.2,9.4,10.6
							v14.9C202.4,254.2,196.8,259.1,190.4,258.4z"/>
						<path class="st7" d="M102.3,192.1c0,0,18.9-3.9,40.3,3.9"/>
						<path class="st7" d="M176.1,199.2c0,0,18.9-3.9,40.3,3.9"/>
						
							<linearGradient id="SVGID_00000087385933092229259070000006915539510902548366_" gradientUnits="userSpaceOnUse" x1="265.9117" y1="-15.6972" x2="265.9117" y2="435.5849" gradientTransform="matrix(1 0 0 -1 0 512.92)">
							<stop  offset="0" style="stop-color:#31271A"/>
							<stop  offset="1" style="stop-color:#0F0F0F"/>
						</linearGradient>
						
							<path style="fill:url(#SVGID_00000087385933092229259070000006915539510902548366_);stroke:#000000;stroke-width:3.2111;stroke-linecap:round;stroke-linejoin:round;stroke-miterlimit:10;" d="
							M246.5,230.3c0,0,14,27.9,10.7,48.9c-3.3,21-27,42.2-22,103.6c0,0-41.4,53.5-0.7,107c0,0-18.4,27-1.6,54.1
							c0,0-6.3-26.3,11.8-37.7s26.5-36.6,20.3-79.4c0,0,12.4-25.9,15.2-43.4c0,0,28.7-31,34.9-91.8"/>
						<path class="st4" d="M280.3,383.4c0,0-17.6,17.9-33.2,25.1c-15.6,7.2-32.8,40.9-26.4,55.4"/>
						<path class="st10" d="M235.2,382.9c0,0,12.2-15.8,26.2-27.2"/>
						<path class="st7" d="M250.6,241.4c5.2-7.8,13.4-12.3,21.7-10.9c12.3,2,20.3,16.1,17.8,31.5c-2.5,15.4-14.5,26.3-26.9,24.3
							c-4.8-0.8-8.9-3.4-12-7.1"/>
						
							<linearGradient id="SVGID_00000165205015643599560610000004655238855535097523_" gradientUnits="userSpaceOnUse" x1="213.3074" y1="-9.2504" x2="213.3074" y2="436.5443" gradientTransform="matrix(1 0 0 -1 0 512.92)">
							<stop  offset="0" style="stop-color:#31271A"/>
							<stop  offset="1" style="stop-color:#0F0F0F"/>
						</linearGradient>
						
							<path style="fill:url(#SVGID_00000165205015643599560610000004655238855535097523_);stroke:#000000;stroke-width:3.2111;stroke-linecap:round;stroke-linejoin:round;stroke-miterlimit:10;" d="
							M261.4,214.6c16,32.6,1.7,58.6-6.8,83.1s3.4,43,3.4,43c-13.5-9.4-20.3-22.7-13.5-40.5c6.8-17.7,18.6-57.5-28.1-92.1
							S181,124.6,181,124.6s-15.6,42.5,6.9,76l-28.2-2.4c0,0-18-19.3-13.5-64.3c0,0-7,35.2,0.6,64.3L133,196c0,0-7-26.6-2.2-56.8
							c0,0-9.9,27.4-4.2,56.8l-10-1.1c0,0-11.1-9.7-7.5-46.9c0,0-5.1,16.6-6.8,33.2c0,0-2,16.3-11.9,30.6
							c-12.6,18.2-16,20.1-4.1,57.2s-11.8,47-11.8,47c5.9-4.5,15.2-29.3,0-56.3s-6.8-68.6-6.8-68.6s3.9-25.2,6.8-37
							c9-36.6,43.9-92.7,134.6-96.3c0,0,53.2-22.2,112.1,42.5l6.4,7.5c24.6,31.3,31.8,67.9,33.4,99.8c0.3,6.4,0.4,12.6,0.4,18.6"/>
					</g>
					<path class="st6" d="M18.9,373.9c0,0-5.1-8.5-14.6,3.4c-9.6,11.8-37.1,37.9-22.6,43.6C-18.4,420.9-9.5,397.6,18.9,373.9z"/>
					<path class="st5" d="M245.9,60.6c0,18.6-19.9,29.8-44.3,29.8s-44.3-11.2-44.3-29.8s19.9-39.9,44.3-39.9S245.9,42,245.9,60.6z"
						/>
					<line class="st4" x1="180.4" y1="63.4" x2="180.4" y2="65.3"/>
					<line class="st4" x1="199.9" y1="65.3" x2="199.9" y2="67.1"/>
					<line class="st4" x1="187.5" y1="68.5" x2="192.5" y2="69.2"/>
				</g>
				<path class="st12" d="M-51.4,352.9c0,4.8,10.2,8.7,22.7,8.7S-6,357.7-6,352.9l10.3-41.2l-66.4,0.8L-51.4,352.9z"/>
				<path class="st12" d="M-65.9,310.9c0,6.9,16.5,12.5,37,12.5s37-5.6,37-12.5v-14.4h-73.9V310.9z"/>
				<ellipse class="st12" cx="-28.9" cy="296.5" rx="37" ry="12.5"/>
				<ellipse class="st6" cx="-28.9" cy="296.5" rx="28.4" ry="7.7"/>
				<g>
					<polyline class="st4" points="-30.3,288.7 -19.5,275.2 -6.8,269.1 0.1,260.6 -4.2,257.5 					"/>
					<polyline class="st4" points="4.2,256.4 0.6,260.6 0.1,256.4 					"/>
					<line class="st4" x1="1.3" y1="261.5" x2="5.4" y2="263.8"/>
					<line class="st4" x1="0.1" y1="260.6" x2="1.3" y2="268.2"/>
				</g>
			</g>
		</g>
	</g>
</g>
<path class="st4" d="M200,400L200,400C89.5,400,0,310.5,0,200l0,0C0,89.5,89.5,0,200,0l0,0c110.5,0,200,89.5,200,200l0,0
	C400,310.5,310.5,400,200,400z"/>
<path class="st5" d="M144.5,263.2c0,0,15.6,3.6,25.3-7.8"/>
</svg>
