<?xml version="1.0" encoding="utf-8"?>
<!-- Generator: Adobe Illustrator 26.0.1, SVG Export Plug-In . SVG Version: 6.00 Build 0)  -->
<svg version="1.1" id="Layer_1" xmlns="http://www.w3.org/2000/svg" xmlns:xlink="http://www.w3.org/1999/xlink" x="0px" y="0px"
	 width="32px" height="32px" viewBox="0 0 32 32" style="enable-background:new 0 0 32 32;" xml:space="preserve">
<style type="text/css">
	.st0{fill:#FFFFFF;}
</style>
<path class="st0" d="M16,2C8.1,2,1.6,8.5,1.6,16.4c0,6.4,4.1,11.8,9.8,13.7c0.7,0.2,1-0.3,1-0.7c0-0.4,0-1.3,0-2.4
	c-4,0.9-4.9-2-4.9-2c-0.6-1.6-1.6-2.1-1.6-2.1C4.7,21.9,6,21.9,6,21.9c1.4,0.1,2.2,1.4,2.2,1.4c1.3,2.2,3.3,1.5,4.2,1.2
	c0.1-0.9,0.5-1.5,0.9-1.9c-3.2-0.4-6.6-1.6-6.6-7.1c0-1.6,0.5-2.9,1.4-3.9C8,11.3,7.6,9.9,8.3,7.9c0,0,1.2-0.4,4,1.4
	c1.2-0.4,2.3-0.4,3.6-0.4s2.4,0.2,3.6,0.4c2.9-1.8,4.1-1.4,4.1-1.4c0.8,2,0.3,3.4,0.2,3.8c0.9,1,1.4,2.2,1.4,3.9
	c0,5.5-3.3,6.7-6.6,7.1c0.5,0.4,1,1.3,1,2.7c0,1.9,0,3.5,0,4c0,0.4,0.3,0.8,1,0.7c5.8-1.9,9.9-7.3,9.9-13.7C30.4,8.5,23.9,2,16,2
	L16,2z"/>
</svg>
