<?xml version="1.0" encoding="utf-8"?>
<!-- Generator: Adobe Illustrator 26.0.1, SVG Export Plug-In . SVG Version: 6.00 Build 0)  -->
<svg version="1.1" id="Layer_1" xmlns="http://www.w3.org/2000/svg" xmlns:xlink="http://www.w3.org/1999/xlink" x="0px" y="0px"
	 width="512px" height="512px" viewBox="0 0 512 512" style="enable-background:new 0 0 512 512;" xml:space="preserve">
<style type="text/css">
	.st0{fill:#FFFFFF;}
</style>
<g>
	<path class="st0" d="M256.1,140.7c-63.8,0-115.3,51.5-115.3,115.3s51.5,115.3,115.3,115.3S371.4,319.8,371.4,256
		S319.9,140.7,256.1,140.7z M256.1,331c-41.3,0-75-33.6-75-75s33.6-75,75-75s75,33.6,75,75S297.3,331,256.1,331L256.1,331z
		 M403,135.9c0,15-12,26.9-26.9,26.9c-15,0-26.9-12-26.9-26.9s12-26.9,26.9-26.9S403,121.1,403,135.9z M479.4,163.2
		c-1.7-36-9.9-68-36.3-94.3c-26.3-26.3-58.2-34.5-94.3-36.3c-37.1-2.1-148.5-2.1-185.6,0c-35.9,1.7-67.9,9.9-94.3,36.2
		S34.4,127,32.6,163.1c-2.1,37.1-2.1,148.5,0,185.6c1.7,36,9.9,68,36.3,94.3s58.2,34.5,94.3,36.3c37.1,2.1,148.5,2.1,185.6,0
		c36-1.7,68-9.9,94.3-36.3c26.3-26.3,34.5-58.2,36.3-94.3C481.5,311.6,481.5,200.4,479.4,163.2L479.4,163.2z M431.4,388.6
		c-7.8,19.7-23,34.8-42.8,42.8c-29.6,11.7-99.9,9-132.6,9s-103.1,2.6-132.6-9c-19.7-7.8-34.8-23-42.8-42.8
		c-11.7-29.6-9-99.9-9-132.6s-2.6-103.1,9-132.6c7.8-19.7,23-34.8,42.8-42.8c29.6-11.7,99.9-9,132.6-9s103.1-2.6,132.6,9
		c19.7,7.8,34.8,23,42.8,42.8c11.7,29.6,9,99.9,9,132.6S443.2,359.1,431.4,388.6z"/>
</g>
</svg>
