<?xml version="1.0" encoding="utf-8"?>
<!-- Generator: Adobe Illustrator 25.4.1, SVG Export Plug-In . SVG Version: 6.00 Build 0)  -->
<svg version="1.1" id="레이어_1" xmlns="http://www.w3.org/2000/svg" xmlns:xlink="http://www.w3.org/1999/xlink" x="0px"
	 y="0px" width="212px" height="212px" viewBox="0 0 212 212" style="enable-background:new 0 0 212 212;" xml:space="preserve">
<style type="text/css">
	.st0{fill:none;stroke:#000000;stroke-miterlimit:10;}
	.st1{fill:#FFFFFF;}
	.st2{stroke:#000000;stroke-miterlimit:10;}
	.st3{fill:#DCDDDD;stroke:#000000;stroke-width:0.75;stroke-miterlimit:10;}
	.st4{stroke:#000000;stroke-width:0.75;stroke-miterlimit:10;}
	.st5{fill:none;stroke:#000000;stroke-width:0.75;stroke-miterlimit:10;}
	.st6{stroke:#231815;stroke-miterlimit:10;}
	.st7{fill:none;stroke:#FFFFFF;stroke-width:0.75;stroke-miterlimit:10;}
	.st8{stroke:#FFFFFF;stroke-width:0.75;stroke-miterlimit:10;}
</style>
<g>
	<circle class="st7" cx="106.31" cy="106" r="52.48"/>
	<g>
		<path class="st1" d="M74.97,101.43c0-0.51,0.1-0.99,0.29-1.43c0.2-0.44,0.47-0.82,0.83-1.13c0.35-0.32,0.76-0.57,1.25-0.75
			c0.49-0.18,1.01-0.27,1.58-0.27s1.1,0.09,1.58,0.27c0.49,0.18,0.91,0.43,1.26,0.75c0.36,0.31,0.64,0.69,0.84,1.13
			c0.2,0.44,0.3,0.92,0.3,1.43c0,0.52-0.1,1-0.3,1.44c-0.2,0.44-0.48,0.81-0.84,1.12c-0.36,0.32-0.78,0.57-1.26,0.75
			c-0.49,0.17-1.01,0.26-1.58,0.26s-1.1-0.09-1.58-0.26c-0.49-0.17-0.9-0.42-1.25-0.75c-0.36-0.31-0.63-0.69-0.83-1.12
			C75.07,102.43,74.97,101.95,74.97,101.43z M88.18,110.64v1.67H75.82v-4.2h9.83v-0.87h-9.83v-1.69h12.04v4.2h-9.81v0.89H88.18z
			 M77.16,101.43c0,0.51,0.16,0.93,0.49,1.24c0.33,0.31,0.75,0.47,1.26,0.47c0.5,0,0.93-0.16,1.27-0.47
			c0.35-0.31,0.52-0.73,0.52-1.24c0-0.5-0.17-0.91-0.52-1.23c-0.35-0.32-0.77-0.48-1.27-0.48c-0.51,0-0.94,0.16-1.26,0.48
			C77.33,100.52,77.16,100.93,77.16,101.43z M87.86,97.85v7.13h-2.21v-7.13H87.86z"/>
		<path class="st1" d="M89.87,111.76v-2.03h9.9v2.03H89.87z M98.93,102.02c0,0.6-0.1,1.16-0.31,1.67c-0.21,0.51-0.5,0.95-0.88,1.32
			c-0.38,0.37-0.84,0.66-1.37,0.86c-0.54,0.21-1.13,0.31-1.77,0.31c-0.67,0-1.27-0.1-1.8-0.31c-0.53-0.21-0.99-0.49-1.36-0.86
			c-0.37-0.37-0.65-0.81-0.85-1.32c-0.2-0.51-0.3-1.07-0.3-1.67c0-0.59,0.1-1.14,0.3-1.65c0.2-0.51,0.49-0.95,0.85-1.33
			c0.38-0.37,0.83-0.66,1.36-0.87c0.53-0.21,1.13-0.32,1.8-0.32c0.65,0,1.24,0.11,1.77,0.32c0.54,0.21,0.99,0.5,1.37,0.87
			c0.38,0.38,0.67,0.82,0.88,1.33C98.83,100.87,98.93,101.42,98.93,102.02z M96.77,102.02c0-0.65-0.2-1.19-0.59-1.63
			c-0.39-0.44-0.92-0.66-1.59-0.66c-0.67,0-1.2,0.22-1.59,0.66c-0.39,0.44-0.59,0.99-0.59,1.63c0,0.66,0.2,1.21,0.59,1.64
			c0.39,0.44,0.92,0.65,1.59,0.65c0.67,0,1.2-0.22,1.59-0.65C96.58,103.22,96.77,102.67,96.77,102.02z M100.72,112.31V97.85h2.21
			v14.47H100.72z"/>
		<path class="st1" d="M118.46,104.09v1.77h-4.52v2.13h-2.23v-2.13h-2.83v-1.77H118.46z M114.39,103.44h-1.72
			c-1.07,0-1.9-0.25-2.5-0.75c-0.59-0.5-0.89-1.18-0.89-2.04c0-0.84,0.3-1.51,0.89-2.03c0.59-0.51,1.42-0.77,2.5-0.77h1.72
			c1.06,0,1.89,0.26,2.49,0.77c0.6,0.51,0.9,1.19,0.9,2.03c0,0.86-0.3,1.54-0.9,2.04C116.28,103.19,115.45,103.44,114.39,103.44z
			 M122.26,110.25v1.98H109.9v-3.93h2.23v1.96H122.26z M112.66,101.68h1.72c0.37,0,0.67-0.09,0.9-0.27
			c0.23-0.18,0.35-0.44,0.35-0.77c0-0.34-0.12-0.59-0.35-0.76c-0.23-0.17-0.54-0.26-0.9-0.26h-1.72c-0.38,0-0.68,0.09-0.91,0.26
			c-0.23,0.17-0.34,0.43-0.34,0.76c0,0.33,0.11,0.59,0.34,0.77C111.98,101.59,112.28,101.68,112.66,101.68z M119.73,108.21h-3.32
			v-1.71h3.32v-8.66h2.21v11.22h-2.21V108.21z"/>
		<path class="st1" d="M132.84,109.67v2.01h-8.34v-8.02h5.22v-3.55h-5.22v-2.03h7.45v7.6h-5.23v3.99H132.84z M137.01,97.85v14.47
			h-2.21V97.85H137.01z"/>
	</g>
	<g>
		<g>
			<polygon class="st1" points="109.12,167.2 105.94,160.66 102.88,167.43 			"/>
			<line class="st8" x1="106.15" y1="165.84" x2="106.55" y2="211.17"/>
		</g>
		<g>
			<polygon class="st1" points="102.88,44.8 106.06,51.34 109.12,44.57 			"/>
			<line class="st8" x1="105.85" y1="46.16" x2="105.45" y2="0.83"/>
		</g>
	</g>
	<g>
		<g>
			<polygon class="st1" points="44.8,109.12 51.34,105.94 44.57,102.88 			"/>
			<line class="st8" x1="46.16" y1="106.15" x2="0.83" y2="106.55"/>
		</g>
		<g>
			<polygon class="st1" points="167.2,102.88 160.66,106.06 167.43,109.12 			"/>
			<line class="st8" x1="165.84" y1="105.85" x2="211.17" y2="105.45"/>
		</g>
	</g>
</g>
</svg>
