<?xml version="1.0" encoding="utf-8"?>
<!-- Generator: Adobe Illustrator 25.4.1, SVG Export Plug-In . SVG Version: 6.00 Build 0)  -->
<svg version="1.1" id="레이어_1" xmlns="http://www.w3.org/2000/svg" xmlns:xlink="http://www.w3.org/1999/xlink" x="0px"
	 y="0px" width="212px" height="212px" viewBox="0 0 212 212" style="enable-background:new 0 0 212 212;" xml:space="preserve">
<style type="text/css">
	.st0{fill:none;stroke:#000000;stroke-miterlimit:10;}
	.st1{fill:#FFFFFF;}
	.st2{stroke:#000000;stroke-miterlimit:10;}
	.st3{fill:#DCDDDD;stroke:#000000;stroke-width:0.75;stroke-miterlimit:10;}
	.st4{stroke:#000000;stroke-width:0.75;stroke-miterlimit:10;}
	.st5{fill:none;stroke:#000000;stroke-width:0.75;stroke-miterlimit:10;}
	.st6{stroke:#231815;stroke-miterlimit:10;}
	.st7{fill:none;stroke:#FFFFFF;stroke-width:0.75;stroke-miterlimit:10;}
	.st8{stroke:#FFFFFF;stroke-width:0.75;stroke-miterlimit:10;}
</style>
<g>
	<circle class="st7" cx="106" cy="105.83" r="52.48"/>
	<g>
		<path class="st1" d="M88.85,104.76h2.01v1.83h-8.59v-1.83h1.34v-4.22h2.04v4.22h1.16l0.79-4.22h2.04L88.85,104.76z M90.54,97.91
			v1.89h-7.95v-1.89H90.54z M95.09,110.03v2.03H82.9v-4.6h2.21v2.58H95.09z M96.67,101.66v2.11h-1.88v4.71h-2.23v-10.8h2.23v3.99
			H96.67z"/>
		<path class="st1" d="M101.67,97.91h7.08v3.43c0,1.09-0.14,2.14-0.43,3.14c-0.29,1-0.7,1.93-1.23,2.8
			c-0.54,0.87-1.19,1.67-1.98,2.39c-0.78,0.72-1.66,1.34-2.65,1.85l-1.52-1.61c0.88-0.42,1.67-0.94,2.35-1.53
			c0.69-0.6,1.27-1.25,1.75-1.97c0.48-0.71,0.85-1.48,1.1-2.3c0.25-0.82,0.38-1.67,0.38-2.55v-1.62h-4.86V97.91z M114.1,97.67v14.47
			h-2.21V97.67H114.1z"/>
		<path class="st1" d="M116.89,102.51c0-0.71,0.29-1.27,0.86-1.66c0.57-0.39,1.33-0.59,2.25-0.59h1.76c0.92,0,1.66,0.2,2.24,0.59
			c0.58,0.39,0.87,0.94,0.87,1.66c0,0.71-0.27,1.26-0.82,1.65c-0.55,0.38-1.26,0.59-2.13,0.61v0.7h4.12v1.77h-9.95v-1.77h3.62v-0.7
			c-0.85-0.03-1.53-0.24-2.05-0.63C117.15,103.76,116.89,103.22,116.89,102.51z M119.69,98.19v-1.07h2.29v1.07h3.47v1.69h-9.08
			v-1.69H119.69z M129.17,108v4.29h-2.21v-2.46h-9.98V108H129.17z M122.72,102.51c0-0.21-0.1-0.38-0.3-0.49
			c-0.2-0.12-0.47-0.18-0.8-0.18h-1.46c-0.36,0-0.63,0.06-0.82,0.18c-0.19,0.12-0.29,0.28-0.29,0.49c0,0.23,0.09,0.41,0.29,0.52
			c0.19,0.11,0.46,0.17,0.82,0.17h1.46c0.33,0,0.6-0.06,0.8-0.17C122.62,102.92,122.72,102.75,122.72,102.51z M126.96,97.67h2.21
			v9.75h-2.21V97.67z"/>
	</g>
	<g>
		<g>
			<polygon class="st1" points="35.67,171.92 33.29,178.79 40.24,176.17 			"/>
			<line class="st8" x1="36.8" y1="174.99" x2="68.58" y2="142.64"/>
		</g>
		<g>
			<polygon class="st1" points="176.33,40.08 178.71,33.21 171.76,35.83 			"/>
			<line class="st8" x1="175.2" y1="37.01" x2="143.42" y2="69.36"/>
		</g>
	</g>
	<g>
		<g>
			<polygon class="st1" points="40.08,35.67 33.21,33.29 35.83,40.24 			"/>
			<line class="st8" x1="37.01" y1="36.8" x2="69.36" y2="68.58"/>
		</g>
		<g>
			<polygon class="st1" points="171.92,176.33 178.79,178.71 176.17,171.76 			"/>
			<line class="st8" x1="174.99" y1="175.2" x2="142.64" y2="143.42"/>
		</g>
	</g>
</g>
</svg>
