<?xml version="1.0" encoding="utf-8"?>
<!-- Generator: Adobe Illustrator 25.4.1, SVG Export Plug-In . SVG Version: 6.00 Build 0)  -->
<svg version="1.1" id="레이어_1" xmlns="http://www.w3.org/2000/svg" xmlns:xlink="http://www.w3.org/1999/xlink" x="0px"
	 y="0px" width="212px" height="212px" viewBox="0 0 212 212" style="enable-background:new 0 0 212 212;" xml:space="preserve">
<style type="text/css">
	.st0{fill:none;stroke:#000000;stroke-miterlimit:10;}
	.st1{fill:#FFFFFF;}
	.st2{stroke:#000000;stroke-miterlimit:10;}
	.st3{fill:#DCDDDD;stroke:#000000;stroke-width:0.75;stroke-miterlimit:10;}
	.st4{stroke:#000000;stroke-width:0.75;stroke-miterlimit:10;}
	.st5{fill:none;stroke:#000000;stroke-width:0.75;stroke-miterlimit:10;}
	.st6{stroke:#231815;stroke-miterlimit:10;}
	.st7{fill:none;stroke:#FFFFFF;stroke-width:0.75;stroke-miterlimit:10;}
	.st8{stroke:#FFFFFF;stroke-width:0.75;stroke-miterlimit:10;}
</style>
<g>
	<circle class="st7" cx="105.95" cy="106.04" r="52.48"/>
	<g>
		<path class="st1" d="M91.65,102.41v-0.62c0-0.56,0.1-1.08,0.29-1.56c0.2-0.48,0.47-0.89,0.81-1.24c0.36-0.35,0.78-0.62,1.27-0.81
			c0.49-0.2,1.03-0.29,1.62-0.29c0.58,0,1.12,0.1,1.61,0.29c0.49,0.2,0.91,0.47,1.27,0.81c0.36,0.35,0.64,0.76,0.84,1.24
			c0.2,0.48,0.3,1,0.3,1.56v0.62c0,0.57-0.1,1.09-0.3,1.57c-0.2,0.47-0.48,0.88-0.84,1.23c-0.36,0.35-0.78,0.62-1.27,0.81
			c-0.49,0.2-1.03,0.29-1.61,0.29c-0.59,0-1.13-0.1-1.62-0.29c-0.49-0.2-0.92-0.47-1.27-0.81c-0.35-0.35-0.62-0.76-0.81-1.23
			C91.75,103.5,91.65,102.97,91.65,102.41z M104.78,110.24v2.03H92.5v-4.76h2.23v2.73H104.78z M93.84,101.79v0.62
			c0,0.57,0.16,1.05,0.48,1.44c0.32,0.39,0.76,0.59,1.33,0.59c0.56,0,1-0.2,1.32-0.59c0.32-0.39,0.49-0.87,0.49-1.44v-0.62
			c0-0.57-0.16-1.05-0.49-1.44c-0.32-0.39-0.76-0.59-1.32-0.59c-0.57,0-1.01,0.2-1.33,0.59C94,100.74,93.84,101.22,93.84,101.79z
			 M104.54,97.88v10.72h-2.21v-3.65h-2.24v-1.99h2.24v-1.62h-2.24v-1.99h2.24v-1.46H104.54z"/>
		<path class="st1" d="M107.1,98.12h6.93v1.27c0,0.8-0.18,1.54-0.54,2.2c-0.36,0.66-0.84,1.24-1.46,1.73
			c-0.63,0.5-1.35,0.91-2.18,1.22c-0.83,0.31-1.71,0.51-2.66,0.6c-0.07-0.14-0.13-0.29-0.2-0.44c-0.07-0.14-0.13-0.29-0.18-0.44
			c-0.07-0.14-0.13-0.29-0.2-0.44c-0.07-0.15-0.13-0.29-0.18-0.44c0.66-0.06,1.29-0.17,1.88-0.35c0.6-0.18,1.13-0.41,1.6-0.69
			c0.48-0.29,0.88-0.63,1.2-1.02s0.53-0.83,0.64-1.32h-4.66V98.12z M119.93,110.64v1.71h-12.36v-4.27h9.83v-0.89h-9.83v-1.69h12.04
			v4.25h-9.81v0.89H119.93z M119.61,97.88v6.97h-2.21v-0.94h-3.11v-1.79h3.11v-1.11h-2.96v-1.77h2.96v-1.36H119.61z"/>
	</g>
	
		<rect x="44.51" y="44.6" transform="matrix(0.7071 0.7071 -0.7071 0.7071 106.0122 -43.859)" class="st7" width="122.88" height="122.88"/>
	<g>
		<circle class="st1" cx="106" cy="19.1" r="2.68"/>
		<circle class="st1" cx="106" cy="192.9" r="2.68"/>
	</g>
	<g>
		<circle class="st1" cx="192.9" cy="106" r="2.68"/>
		<circle class="st1" cx="19.1" cy="106" r="2.68"/>
	</g>
</g>
</svg>
