<svg width="20" height="20" viewBox="0 0 20 20" fill="none" xmlns="http://www.w3.org/2000/svg">
<rect x="19.5" y="19.5" width="19" height="19" rx="4.5" transform="rotate(-180 19.5 19.5)" fill="white" stroke="black" stroke-linecap="round" stroke-linejoin="round"/>
<path d="M9.46642 14.8388L9.4657 14.8382C7.91064 13.4293 6.66051 12.2955 5.79313 11.2361C4.93149 10.1836 4.5 9.26558 4.5 8.297C4.5 6.72725 5.72771 5.5 7.3 5.5C8.19278 5.5 9.05732 5.91767 9.61947 6.5772C9.71447 6.68866 9.85355 6.75286 10 6.75286C10.1464 6.75286 10.2855 6.68866 10.3805 6.5772C10.9427 5.91767 11.8072 5.5 12.7 5.5C14.2723 5.5 15.5 6.72725 15.5 8.297C15.5 9.26559 15.0685 10.1836 14.2068 11.2369C13.3394 12.2972 12.0894 13.4323 10.5344 14.844C10.5343 14.8442 10.5341 14.8444 10.5339 14.8445L10.0013 15.3253L9.46642 14.8388Z" fill="#FF7878" stroke="black" stroke-linejoin="round"/>
</svg>
