<svg width="60" height="60" viewBox="0 0 60 60" fill="none" xmlns="http://www.w3.org/2000/svg">
<g clip-path="url(#clip0_3462_25)">
<path d="M59.6543 29.9997C59.6543 13.6223 46.3777 0.345703 30.0002 0.345703C13.6228 0.345703 0.346191 13.6223 0.346191 29.9997C0.346191 46.3772 13.6228 59.6538 30.0002 59.6538C46.3777 59.6538 59.6543 46.3772 59.6543 29.9997Z" fill="#436005" stroke="black" stroke-width="0.7" stroke-linecap="round" stroke-linejoin="round"/>
<path d="M31.6311 49.957H30.0298C29.3665 49.957 28.7304 49.6934 28.2614 49.2244C27.7925 48.7554 27.529 48.1192 27.529 47.4559V43.2255H34.4482V47.1794C34.4482 47.9134 34.1566 48.6175 33.6376 49.1365C33.1185 49.6556 32.4146 49.9469 31.6805 49.9469L31.6311 49.957Z" fill="white" stroke="black" stroke-width="0.7" stroke-linecap="round" stroke-linejoin="round"/>
<path d="M42.0001 48.188C40.2894 47.0778 38.2411 46.6088 36.2176 46.8636H28.8041L22.7053 48.0201C18.9887 48.4847 16.8931 52.0925 16.8931 55.8487V56.6199C20.9679 58.6359 25.4539 59.6811 30.0001 59.6742C35.1145 59.679 40.1423 58.3538 44.5899 55.8289V52.9426C44.5886 51.9971 44.351 51.0668 43.8987 50.2364C43.4464 49.4061 42.7938 48.702 42.0001 48.188V48.188Z" fill="#F2EDE7" stroke="black" stroke-width="0.7" stroke-linecap="round" stroke-linejoin="round"/>
<path d="M38.2833 46.7246C38.2833 46.7246 37.0971 53.3674 34.2207 55.1565C34.2207 55.1565 29.2784 54.1678 25.3245 47.5055C25.3245 47.5055 19.9472 47.2585 17.5057 51.5188C16.7805 53.0071 16.3317 54.6145 16.1812 56.2632C20.4267 58.497 25.1532 59.661 29.9505 59.6538V59.6538C35.3272 59.6623 40.6041 58.2029 45.2124 55.4331C45.2619 53.2584 44.6589 47.3572 38.2833 46.7246Z" fill="#1B1B3F" stroke="black" stroke-width="0.7" stroke-linecap="round" stroke-linejoin="round"/>
<path d="M31.9969 50.4614C34.7647 50.4614 37.0084 49.2001 37.0084 47.6443C37.0084 46.0884 34.7647 44.8271 31.9969 44.8271C29.2291 44.8271 26.9854 46.0884 26.9854 47.6443C26.9854 49.2001 29.2291 50.4614 31.9969 50.4614Z" fill="#F2EDE7" stroke="black" stroke-width="0.7" stroke-linecap="round" stroke-linejoin="round"/>
<path d="M31.9969 49.1957C33.8476 49.1957 35.3478 48.4257 35.3478 47.4758C35.3478 46.5259 33.8476 45.7559 31.9969 45.7559C30.1462 45.7559 28.646 46.5259 28.646 47.4758C28.646 48.4257 30.1462 49.1957 31.9969 49.1957Z" fill="white" stroke="black" stroke-width="0.7" stroke-linecap="round" stroke-linejoin="round"/>
<path d="M34.7152 57.2221C38.6691 54.5533 39.4895 48.929 39.6576 46.962C39.2055 46.8497 38.7465 46.7671 38.2836 46.7148C38.2836 46.7148 37.0974 53.3673 34.221 55.1564C34.221 55.1564 29.2787 54.1677 25.3248 47.5054C24.322 47.4976 23.3233 47.6343 22.3594 47.9109C28.3198 56.5995 34.7152 57.2221 34.7152 57.2221Z" fill="#282828" stroke="black" stroke-width="0.7" stroke-linecap="round" stroke-linejoin="round"/>
<path d="M47.13 29.8418C47.13 29.8418 47.298 40.6657 46.1415 47.0314C43.1763 46.5675 40.3216 45.5623 37.7198 44.066C33.5485 41.6937 47.13 29.8418 47.13 29.8418Z" fill="#212020" stroke="black" stroke-width="0.7" stroke-linecap="round" stroke-linejoin="round"/>
<path d="M31.6411 47.1201H31.8487C40.2885 47.1201 47.1304 40.2783 47.1304 31.8384V27.8546C47.1304 19.4148 40.2885 12.573 31.8487 12.573H31.6411C23.2012 12.573 16.3594 19.4148 16.3594 27.8546V31.8384C16.3594 40.2783 23.2012 47.1201 31.6411 47.1201Z" fill="white" stroke="black" stroke-width="0.7" stroke-linecap="round" stroke-linejoin="round"/>
<path d="M47.9901 26.9066C47.9901 26.9066 40.0824 28.9627 24.6129 28.4487C23.5151 34.9597 23.3686 41.5954 24.178 48.1485C24.178 48.1485 15.1532 47.7236 11.0313 44.1058C11.0313 44.1058 5.35754 13.6512 25.8584 11.0713C25.8089 11.0713 46.4382 7.11747 47.9901 26.9066Z" fill="#212020" stroke="black" stroke-width="0.7" stroke-miterlimit="10"/>
<path d="M42.1482 34.962C42.5021 34.9208 42.8285 34.7512 43.0654 34.4851C43.3023 34.2191 43.4332 33.8751 43.4332 33.5189V31.4724C43.4333 31.2652 43.3895 31.0605 43.3045 30.8715C43.2195 30.6826 43.0953 30.5137 42.9401 30.3763C42.785 30.239 42.6025 30.1362 42.4046 30.0747C42.2067 30.0132 41.9981 29.9945 41.7924 30.0197V30.0197C41.4377 30.0631 41.1111 30.2346 40.8744 30.5023C40.6376 30.77 40.5071 31.1151 40.5073 31.4724V33.5189C40.5086 33.7253 40.5535 33.9291 40.6391 34.1169C40.7248 34.3047 40.8491 34.4719 41.0041 34.6082C41.1591 34.7445 41.3411 34.8465 41.5383 34.9075C41.7355 34.9684 41.9434 34.9871 42.1482 34.962V34.962Z" fill="black"/>
<path d="M32.9953 35.8321C33.35 35.7886 33.6765 35.6171 33.9132 35.3494C34.1499 35.0817 34.2805 34.7366 34.2803 34.3793V32.3329C34.2818 32.1261 34.2392 31.9214 34.1554 31.7324C34.0715 31.5435 33.9482 31.3748 33.7939 31.2372C33.6395 31.0997 33.4575 30.9967 33.2601 30.9351C33.0627 30.8735 32.8545 30.8548 32.6493 30.8801V30.8801C32.2946 30.9235 31.968 31.095 31.7313 31.3627C31.4946 31.6304 31.364 31.9755 31.3643 32.3329V34.3793C31.3643 34.5856 31.408 34.7891 31.4924 34.9773C31.5768 35.1655 31.7001 35.3338 31.8541 35.4711C32.0081 35.6083 32.1894 35.7115 32.386 35.7737C32.5827 35.8359 32.7903 35.8558 32.9953 35.8321V35.8321Z" fill="black"/>
<path d="M24.8009 33.5084C24.5036 32.9992 24.0656 32.5866 23.5396 32.3201C23.0136 32.0536 22.4219 31.9445 21.8355 32.0059C20.1452 32.2827 19.0579 34.2202 19.3939 36.3256C19.73 38.4311 21.3709 39.9238 23.0711 39.6569C23.7202 39.5383 24.3036 39.1868 24.7119 38.6684" fill="white"/>
<path d="M24.8009 33.5084C24.5036 32.9992 24.0656 32.5866 23.5396 32.3201C23.0136 32.0536 22.4219 31.9445 21.8355 32.0059C20.1452 32.2827 19.0579 34.2202 19.3939 36.3256C19.73 38.4311 21.3709 39.9238 23.0711 39.6569C23.7202 39.5383 24.3036 39.1868 24.7119 38.6684" stroke="black" stroke-width="0.7" stroke-linecap="round" stroke-linejoin="round"/>
<path d="M44.6739 37.4034C46.8714 37.04 48.4413 35.4664 48.1803 33.8883C47.9194 32.3102 45.9264 31.3253 43.7289 31.6887C41.5314 32.0521 39.9616 33.6262 40.2226 35.2043C40.4835 36.7824 42.4764 37.7668 44.6739 37.4034Z" stroke="black" stroke-width="0.7" stroke-linecap="round" stroke-linejoin="round"/>
<path d="M34.1075 38.1192C36.305 37.7558 37.8748 36.1817 37.6139 34.6036C37.3529 33.0255 35.36 32.0411 33.1625 32.4045C30.965 32.7679 29.3951 34.3415 29.6561 35.9196C29.917 37.4977 31.91 38.4826 34.1075 38.1192Z" stroke="black" stroke-width="0.7" stroke-linecap="round" stroke-linejoin="round"/>
<path d="M37.4331 34.8827C37.8069 34.6307 38.2475 34.4961 38.6984 34.4961C39.1492 34.4961 39.5897 34.6307 39.9636 34.8827" stroke="black" stroke-width="0.7" stroke-linecap="round" stroke-linejoin="round"/>
<path d="M23.8516 32.6094L27.5188 35.6044L29.0015 35.5649" stroke="black" stroke-width="0.7" stroke-linecap="round" stroke-linejoin="round"/>
<path d="M48.1089 34.3001L49.5817 34.1716L47.2588 31.6807" stroke="black" stroke-width="0.7" stroke-linecap="round" stroke-linejoin="round"/>
<path d="M26.9753 35.3477C26.9753 35.3477 28.1121 46.2206 26.5899 49.7495C25.0676 53.2783 22.2505 48.1384 22.2505 48.1384" stroke="black" stroke-width="0.7" stroke-linecap="round" stroke-linejoin="round"/>
<path d="M49.2457 33.9141C49.2457 33.9141 50.2935 46.5761 46.2803 49.4921C42.2671 52.4081 38.3726 46.3689 38.3726 46.3689" stroke="black" stroke-width="0.7" stroke-linecap="round" stroke-linejoin="round"/>
<path d="M25.4531 52.9424C25.3285 52.1467 24.9864 51.4008 24.4646 50.7873C23.8433 50.142 23.0894 49.6392 22.2549 49.3133C21.4205 48.9874 20.5253 48.8463 19.631 48.8997C18.984 49.0092 18.3652 49.2464 17.8108 49.5976C17.2565 49.9488 16.7776 50.4069 16.4022 50.9451C16.0268 51.4834 15.7624 52.0913 15.6243 52.7329C15.4862 53.3745 15.4773 54.0368 15.5981 54.6818L15.8452 56.0661C19.1691 57.8712 22.8111 59.0155 26.5701 59.4364L25.4531 52.9424Z" fill="white" stroke="black" stroke-width="0.7" stroke-linecap="round" stroke-linejoin="round"/>
<path d="M37.4434 42.9981C36.3096 42.5244 35.0435 42.4734 33.8752 42.8543C32.707 43.2353 31.7143 44.023 31.0777 45.074L30.4351 46.1315C29.8033 47.174 29.5649 48.4081 29.763 49.6109L24.0596 59.0607C26.0121 59.4535 27.9987 59.6523 29.9904 59.6539V59.6539C30.9788 59.6539 31.9179 59.6044 32.8668 59.5154L36.4154 53.6343C37.5743 53.2532 38.5569 52.4669 39.1831 51.4199L39.8256 50.3624C40.2039 49.7339 40.443 49.0317 40.5268 48.3029C40.6105 47.5742 40.537 46.8357 40.3113 46.1378C40.0855 45.4398 39.7127 44.7985 39.2179 44.2569C38.7232 43.7153 38.1181 43.286 37.4434 42.9981V42.9981Z" fill="white" stroke="black" stroke-width="0.7" stroke-linecap="round" stroke-linejoin="round"/>
<path d="M35.901 55.6008C34.3841 55.6331 32.8885 55.24 31.5835 54.4661C30.2786 53.6922 29.2163 52.5682 28.5171 51.2217L29.2881 49.7197C30.0761 51.0208 31.151 52.1244 32.4307 52.9467C33.7104 53.769 35.1611 54.2881 36.6719 54.4642L35.901 55.6008Z" fill="#2A7E99" stroke="black" stroke-width="0.7" stroke-linecap="round" stroke-linejoin="round"/>
<path d="M28.8136 50.6786C28.8136 50.6786 28.2403 50.3031 26.6785 51.8847C24.9263 53.9581 23.3834 56.1997 22.0723 58.5766C24.6474 59.2914 27.3075 59.6537 29.98 59.6539V59.6539C31.7869 59.6504 33.5898 59.485 35.3672 59.1597C36.2864 57.3706 36.8202 55.8384 36.2864 55.4331C33.2899 54.8352 30.6249 53.1395 28.8136 50.6786V50.6786Z" fill="#62ACD6" stroke="black" stroke-width="0.7" stroke-linecap="round" stroke-linejoin="round"/>
</g>
<defs>
<clipPath id="clip0_3462_25">
<rect width="60" height="60" fill="white"/>
</clipPath>
</defs>
</svg>
